G04 Layer_Physical_Order=2*
G04 Layer_Color=16711680*
%FSLAX25Y25*%
%MOIN*%
G70*
G01*
G75*
%ADD18C,0.01260*%
%ADD19C,0.01000*%
%ADD32C,0.03543*%
%ADD33C,0.05906*%
%ADD34R,0.05906X0.05906*%
%ADD35C,0.03150*%
G36*
X67716Y55905D02*
X48425D01*
Y52362D01*
X42520D01*
Y54724D01*
X38976D01*
Y60630D01*
X61811D01*
Y71260D01*
X67716D01*
Y55905D01*
D02*
G37*
G36*
X142373Y2115D02*
X2115D01*
Y71113D01*
X60205D01*
Y62236D01*
X38976D01*
X38362Y62113D01*
X37841Y61765D01*
X37493Y61244D01*
X37371Y60630D01*
Y54780D01*
X37236Y54662D01*
X36904Y54508D01*
X36628Y54720D01*
X35862Y55037D01*
X35039Y55145D01*
X34217Y55037D01*
X33451Y54720D01*
X32793Y54215D01*
X32288Y53557D01*
X31971Y52791D01*
X31863Y51971D01*
X31746Y51854D01*
X25714D01*
X25384Y52230D01*
X25433Y52598D01*
X25277Y53780D01*
X24821Y54882D01*
X24095Y55827D01*
X23149Y56553D01*
X22048Y57009D01*
X20866Y57165D01*
X19684Y57009D01*
X18583Y56553D01*
X17637Y55827D01*
X16911Y54882D01*
X16455Y53780D01*
X16299Y52598D01*
X16455Y51416D01*
X16911Y50315D01*
X17359Y49732D01*
X17354Y49351D01*
X17251Y49059D01*
X16914Y48834D01*
X14552Y46471D01*
X14065Y45742D01*
X13894Y44882D01*
Y40157D01*
X14065Y39297D01*
X14552Y38568D01*
X17308Y35812D01*
X18037Y35325D01*
X18898Y35154D01*
X22691D01*
X23736Y34108D01*
Y28648D01*
X22084Y26995D01*
X22048Y27009D01*
X20866Y27165D01*
X19684Y27009D01*
X18583Y26553D01*
X17637Y25828D01*
X16911Y24882D01*
X16455Y23780D01*
X16299Y22598D01*
X16455Y21417D01*
X16911Y20315D01*
X17637Y19369D01*
X18583Y18644D01*
X19684Y18187D01*
X20866Y18032D01*
X22048Y18187D01*
X23149Y18644D01*
X24095Y19369D01*
X24821Y20315D01*
X25277Y21417D01*
X25433Y22598D01*
X25277Y23780D01*
X25262Y23816D01*
X27574Y26127D01*
X28061Y26856D01*
X28232Y27716D01*
Y35039D01*
X28061Y35900D01*
X27574Y36629D01*
X25212Y38991D01*
X24698Y39334D01*
X24533Y39939D01*
X24821Y40315D01*
X25277Y41416D01*
X25433Y42598D01*
X25464Y42634D01*
X34646D01*
X35506Y42805D01*
X36235Y43292D01*
X37545Y44603D01*
X72047D01*
X72908Y44774D01*
X73637Y45261D01*
X75341Y46965D01*
X85551D01*
X86207Y46461D01*
X86973Y46144D01*
X87795Y46036D01*
X88617Y46144D01*
X89384Y46461D01*
X90042Y46966D01*
X90546Y47624D01*
X90864Y48390D01*
X90972Y49213D01*
X90864Y50035D01*
X90546Y50801D01*
X90042Y51459D01*
X89384Y51964D01*
X88617Y52281D01*
X87795Y52389D01*
X86973Y52281D01*
X86207Y51964D01*
X85551Y51460D01*
X77340D01*
X77149Y51922D01*
X77180Y51954D01*
X77667Y52683D01*
X77838Y53543D01*
Y54449D01*
X78342Y55105D01*
X78659Y55871D01*
X78767Y56693D01*
X78659Y57515D01*
X78342Y58281D01*
X77837Y58939D01*
X77179Y59444D01*
X76413Y59761D01*
X75590Y59870D01*
X74768Y59761D01*
X74002Y59444D01*
X73344Y58939D01*
X72839Y58281D01*
X72522Y57515D01*
X72414Y56693D01*
X72522Y55871D01*
X72839Y55105D01*
X73331Y54463D01*
X71662Y52794D01*
X71614Y52762D01*
X69919Y51067D01*
X50055D01*
X49788Y51567D01*
X49909Y51748D01*
X50031Y52362D01*
Y54300D01*
X67716D01*
X68331Y54422D01*
X68852Y54770D01*
X69200Y55291D01*
X69322Y55905D01*
Y71113D01*
X142373D01*
Y2115D01*
D02*
G37*
%LPC*%
G36*
X127756Y39202D02*
X126882Y39087D01*
X126068Y38750D01*
X125369Y38214D01*
X124833Y37514D01*
X124496Y36700D01*
X124381Y35827D01*
X124496Y34953D01*
X124833Y34139D01*
X125369Y33440D01*
X126068Y32904D01*
X126882Y32566D01*
X127756Y32451D01*
X128630Y32566D01*
X129444Y32904D01*
X130143Y33440D01*
X130679Y34139D01*
X131016Y34953D01*
X131131Y35827D01*
X131016Y36700D01*
X130679Y37514D01*
X130143Y38214D01*
X129444Y38750D01*
X128630Y39087D01*
X127756Y39202D01*
D02*
G37*
G36*
X25394Y17126D02*
X16339D01*
Y8071D01*
X25394D01*
Y17126D01*
D02*
G37*
G36*
X20866Y67165D02*
X19684Y67009D01*
X18583Y66553D01*
X17637Y65828D01*
X16911Y64882D01*
X16455Y63780D01*
X16299Y62598D01*
X16455Y61417D01*
X16911Y60315D01*
X17637Y59369D01*
X18583Y58644D01*
X19684Y58187D01*
X20866Y58032D01*
X22048Y58187D01*
X23149Y58644D01*
X24095Y59369D01*
X24821Y60315D01*
X25277Y61417D01*
X25433Y62598D01*
X25277Y63780D01*
X24821Y64882D01*
X24095Y65828D01*
X23149Y66553D01*
X22048Y67009D01*
X20866Y67165D01*
D02*
G37*
G36*
X127756Y56525D02*
X126882Y56410D01*
X126068Y56073D01*
X125369Y55536D01*
X124833Y54837D01*
X124496Y54023D01*
X124381Y53150D01*
X124496Y52276D01*
X124833Y51462D01*
X125369Y50763D01*
X126068Y50226D01*
X126882Y49889D01*
X127756Y49774D01*
X128630Y49889D01*
X129444Y50226D01*
X130143Y50763D01*
X130679Y51462D01*
X131016Y52276D01*
X131131Y53150D01*
X131016Y54023D01*
X130679Y54837D01*
X130143Y55536D01*
X129444Y56073D01*
X128630Y56410D01*
X127756Y56525D01*
D02*
G37*
%LPD*%
D18*
X16142Y44882D02*
X18504Y47244D01*
X20866Y22598D02*
X25984Y27716D01*
Y35039D01*
X23622Y37402D02*
X25984Y35039D01*
X18898Y37402D02*
X23622D01*
X16142Y40157D02*
X18898Y37402D01*
X16142Y40157D02*
Y44882D01*
X75590Y53543D02*
Y56693D01*
X20866Y52598D02*
X23858Y49606D01*
X32677D01*
X35039Y51968D01*
X73204Y51172D02*
X73220D01*
X75590Y53543D01*
X21732Y42598D02*
X24016Y44882D01*
X18504Y47244D02*
X33465D01*
X24016Y44882D02*
X34646D01*
X36614Y46850D01*
X33465Y47244D02*
X35039Y48819D01*
X70850D01*
X73204Y51172D01*
X36614Y46850D02*
X72047D01*
X74409Y49213D01*
X87795D01*
D19*
X20866Y42598D02*
X21732D01*
D32*
X127756Y53150D02*
D03*
Y35827D02*
D03*
D33*
X20866Y62598D02*
D03*
Y52598D02*
D03*
Y42598D02*
D03*
Y32598D02*
D03*
Y22598D02*
D03*
D34*
Y12598D02*
D03*
D35*
X35039Y51968D02*
D03*
X11417Y31102D02*
D03*
Y39764D02*
D03*
X22441Y5118D02*
D03*
X11417D02*
D03*
X33858D02*
D03*
X87795Y49213D02*
D03*
X54331Y43307D02*
D03*
X60630D02*
D03*
X67323D02*
D03*
Y33465D02*
D03*
X60630D02*
D03*
X54331D02*
D03*
X60630Y38583D02*
D03*
X54331D02*
D03*
X67323D02*
D03*
X98425Y28740D02*
D03*
X86221Y30709D02*
D03*
X77165Y23622D02*
D03*
X101181Y12598D02*
D03*
X114567Y5512D02*
D03*
X101181D02*
D03*
X81102Y5118D02*
D03*
X68504D02*
D03*
X55118D02*
D03*
X137008Y15354D02*
D03*
X130709Y5512D02*
D03*
X75590Y56693D02*
D03*
X86614Y38189D02*
D03*
X46850Y5118D02*
D03*
X41732Y57874D02*
D03*
X45276Y55118D02*
D03*
X12598Y67323D02*
D03*
Y61417D02*
D03*
X28740Y66142D02*
D03*
X42520D02*
D03*
X64567Y68898D02*
D03*
Y64173D02*
D03*
X93701Y57874D02*
D03*
X87795Y54331D02*
D03*
X94488Y66929D02*
D03*
X89370Y62205D02*
D03*
X108661Y53150D02*
D03*
X98425Y52756D02*
D03*
X104724Y67323D02*
D03*
M02*
