M48
;Layer_Color=9474304
;FILE_FORMAT=2:5
INCH,TZ
;TYPE=PLATED
T1F00S00C0.01575
T2F00S00C0.03543
%
T01
X11417Y5118
X22441
X33858
X46850
X55118
X68504
X81102
X101181Y5512
Y12598
X98425Y28740
X86221Y30709
X86614Y38189
X87795Y49213
Y54331
X93701Y57874
X89370Y62205
X94488Y66929
X104724Y67323
X108661Y53150
X98425Y52756
X75590Y56693
X64567Y64173
Y68898
X42520Y66142
X41732Y57874
X45276Y55118
X35039Y51968
X28740Y66142
X12598Y67323
Y61417
X11417Y39764
Y31102
X54331Y33465
Y38583
Y43307
X60630
Y38583
Y33465
X67323
Y38583
Y43307
X77165Y23622
X114567Y5512
X130709
X137008Y15354
T02
X20866Y12598
Y22598
Y32598
Y42598
Y52598
Y62598
X127756Y53150
Y35827
M30
